Coordinates
version=1
nRows=11
nColumns=36
inDegrees=yes

Units are S.I. units (second, meters, Newtons, ...)
If the header above contains a line with 'inDegrees', this indicates whether rotational values are in degrees (yes) or radians (no).

endheader
time	pelvis_tilt	pelvis_list	pelvis_rotation	pelvis_tx	pelvis_ty	pelvis_tz	hip_flexion_r	hip_adduction_r	hip_rotation_r	knee_angle_r	knee_angle_r_beta	ankle_angle_r	subtalar_angle_r	mtp_angle_r	hip_flexion_l	hip_adduction_l	hip_rotation_l	knee_angle_l	knee_angle_l_beta	ankle_angle_l	subtalar_angle_l	mtp_angle_l	lumbar_extension	lumbar_bending	lumbar_rotation	arm_flex_r	arm_add_r	arm_rot_r	elbow_flex_r	pro_sup_r	arm_flex_l	arm_add_l	arm_rot_l	elbow_flex_l	pro_sup_l
      7.40000000	     -5.76769838	     -1.92917637	     -1.15688939	      0.74954606	      0.88571474	      0.24309328	     11.64234166	      2.26054224	      3.88206650	      7.08575557	      0.12366976	      6.51741325	     -7.22752020	     -7.49999987	      9.45968874	     -4.90676546	     -4.56540282	     14.47819481	      0.25269217	      6.44305028	    -16.46934396	     -7.49999987	      5.64455427	      2.71269268	      3.01422115	     45.05336664	      6.17134837	     68.22059845	    127.83633990	     92.87579650	     34.84301566	     11.71374118	     68.98933764	    121.55600454	     82.16825987
      7.41666670	     -5.66271271	     -1.97994247	     -0.57667094	      0.76529613	      0.88178058	      0.25516494	     11.22560705	      2.47281221	      3.73244632	      7.18569550	      0.12541405	      6.92689942	     -7.24668332	     -7.49999987	     10.16560180	     -5.29443135	     -4.29071315	     16.45244303	      0.28714930	      6.26964863	    -17.16955638	     -7.49999987	      5.83450747	      2.61943694	      2.53236986	     44.31112068	      6.54424143	     68.77694217	    127.67893999	     91.16528978	     34.12140315	     11.37317905	     69.85409361	    122.67254465	     81.02551821
      7.43333330	     -5.60678750	     -1.99897973	     -0.12553740	      0.76577026	      0.88342346	      0.25534513	     10.96047534	      2.62539791	      3.29517752	      7.51649998	      0.13118767	      7.16406771	     -7.40540105	     -7.49999987	     10.84489513	     -5.60441139	     -4.19392953	     18.19489168	      0.31756077	      6.10402542	    -17.88744144	     -7.49999987	      6.00996705	      2.72195157	      1.97140576	     43.69571061	      6.96745326	     69.25314821	    127.38248971	     94.43620502	     33.68820383	     11.10190581	     70.31422256	    123.44720297	     82.47033852
      7.45000000	     -5.16982167	     -1.98888549	      0.09530331	      0.76974495	      0.88472060	      0.25799986	     10.12418155	      2.82927258	      3.37150141	      7.45071937	      0.13003958	      7.45595978	     -7.46205291	     -7.49999987	     11.00741831	     -5.93378194	     -4.05334183	     19.95594646	      0.34829697	      5.69344272	    -18.74834598	     -7.49999987	      6.14724847	      2.68389623	      1.49571058	     42.78640080	      7.29175141	     69.60435393	    127.09343462	     93.12911259	     32.95842442	     10.72989451	     70.54927061	    124.06391151	     81.14080890
      7.46666670	     -4.97003648	     -1.96913899	      0.37018410	      0.77009992	      0.88632118	      0.25824105	      9.60228408	      3.00006159	      3.41313470	      7.46181361	      0.13023322	      7.71684274	     -7.78739509	     -7.49999987	     11.58967451	     -6.17762256	     -3.52113702	     21.82037899	      0.38083746	      5.24511768	    -19.96758567	     -7.49999987	      6.40918076	      2.80460077	      1.04989586	     41.71433743	      7.19043976	     69.82141592	    127.16937706	     94.42963744	     32.50965568	     10.32545346	     70.23392905	    124.15208172	     82.72214799
      7.48333330	     -4.58679534	     -1.93585853	      0.31992084	      0.77066485	      0.88498012	      0.26395562	      8.86652689	      3.24332833	      3.86092558	      7.23088009	      0.12620267	      7.99899666	     -7.96272279	     -7.49999987	     12.21312042	     -6.48931541	     -2.92183698	     24.13841419	      0.42129480	      4.71490642	    -21.39345108	     -7.49999987	      6.48326549	      2.86317851	      1.05095514	     40.91784078	      7.16665534	     69.52275907	    127.30549471	     93.68680043	     32.13327531	     10.05731005	     69.85513873	    124.35359348	     82.13978669
      7.50000000	     -4.26251070	     -1.83026317	      0.20132904	      0.77106100	      0.88413148	      0.26434325	      8.27203883	      3.38734660	      4.25065577	      7.00389867	      0.12224109	      8.16028897	     -8.17062481	     -7.49999987	     12.94779421	     -6.61327168	     -2.00285241	     26.29631950	      0.45895736	      3.61834224	    -23.29678732	     -7.49999987	      6.51476627	      2.91983119	      1.20159980	     40.29275307	      6.90554908	     69.33162504	    127.52149544	     92.70731337	     31.75870229	      9.90514114	     69.23850022	    124.24225461	     81.42137898
      7.51666670	     -4.04312474	     -1.62062917	     -0.08304435	      0.76562587	      0.89204833	      0.26784234	      7.87792648	      3.45876686	      4.88274788	      6.67516684	      0.11650364	      8.42541696	     -8.19247554	     -7.49999987	     13.90498903	     -6.62407803	     -1.20330368	     28.23339052	      0.49276562	      2.55488641	    -24.83757465	     -7.49999987	      6.25605621	      2.81115729	      1.55689766	     40.01608468	      6.67269237	     69.16831348	    127.50635720	     91.40558810	     31.63495676	      9.90220176	     69.23057962	    123.93438758	     80.63704151
      7.53333330	     -3.72124860	     -1.48514989	     -0.32343039	      0.76308121	      0.88617208	      0.27145541	      7.63718249	      3.57124801	      5.19743205	      6.77519137	      0.11824940	      8.85733128	     -8.03142440	     -7.49999987	     15.22569270	     -6.80323353	     -0.68449763	     30.61373471	      0.53431047	      1.85715036	    -25.60317169	     -7.49999987	      5.76396874	      2.79023477	      1.87541383	     40.29782839	      6.62116644	     68.84759038	    127.58754955	     90.73573569	     31.91703609	     10.02777436	     68.83725426	    123.68254510	     80.21244390
      7.55000000	     -3.42281224	     -1.10166808	     -0.70973257	      0.75867407	      0.88571741	      0.27482876	      7.74307088	      3.42839291	      5.53632356	      7.35135754	      0.12830539	      9.34526971	     -8.32681353	     -7.49999987	     17.30344210	     -6.62431944	     -0.08693910	     34.01991137	      0.59375946	     -0.50401665	    -28.29873291	     -7.49999987	      5.12333176	      2.36480251	      2.42311599	     40.96105595	      6.44430665	     68.72622116	    127.54881092	     89.97247332	     32.48611933	     10.28780217	     68.56635931	    122.88337973	     79.52924783
      7.56666670	     -2.85336066	     -0.88917274	     -1.20734539	      0.75606632	      0.88752215	      0.28389439	      7.66757164	      3.60390969	      6.09086851	      7.93406327	      0.13847553	      9.98691515	     -8.38972295	     -7.49999987	     19.35015003	     -6.94573133	      0.26670325	     37.88176366	      0.66116150	     -1.89564547	    -28.94566110	     -7.49999987	      4.00485881	      2.00185360	      3.23897671	     41.98097739	      6.63944802	     68.38679047	    127.14103176	     90.13384699	     33.10693130	     10.31189260	     68.38815223	    122.55301842	     79.68481494
